<?xml version="1.0" standalone="no"?>
<!DOCTYPE svg PUBLIC "-//W3C//DTD SVG 20010904//EN"
 "http://www.w3.org/TR/2001/REC-SVG-20010904/DTD/svg10.dtd">
<svg version="1.0" xmlns="http://www.w3.org/2000/svg"
 width="700.000000pt" height="700.000000pt" viewBox="0 0 700.000000 700.000000"
 preserveAspectRatio="xMidYMid meet">
<metadata>
Created by potrace 1.11, written by Peter Selinger 2001-2013
</metadata>
<g transform="translate(0.000000,700.000000) scale(0.100000,-0.100000)"
fill="#000000" stroke="none">
<path d="M3310 6994 c-397 -34 -613 -76 -910 -174 -849 -280 -1563 -882 -1987
-1675 -176 -329 -306 -712 -363 -1067 -35 -222 -44 -340 -44 -578 0 -402 52
-730 174 -1100 174 -530 474 -1008 876 -1400 556 -542 1228 -866 2024 -977 96
-13 194 -17 420 -17 323 0 430 10 699 64 1371 277 2454 1360 2731 2731 54 269
64 376 64 699 0 272 -2 309 -27 475 -107 696 -358 1259 -790 1775 -575 686
-1379 1118 -2282 1225 -126 15 -494 27 -585 19z m1858 -1450 c79 -158 140
-290 135 -294 -20 -18 -1064 -587 -1113 -607 -81 -33 -151 -36 -405 -18 -126
9 -319 22 -428 30 -146 10 -204 18 -222 29 -79 52 -77 169 3 210 16 8 95 22
178 31 489 52 498 54 517 76 20 25 21 39 5 74 -16 35 -42 39 -166 26 -59 -6
-201 -20 -316 -32 -215 -22 -265 -33 -318 -70 -42 -30 -85 -101 -99 -165 l-12
-53 -511 -171 c-281 -93 -527 -170 -546 -170 -45 0 -95 31 -116 71 -23 45 -15
121 17 155 21 23 1145 802 1274 883 28 17 86 43 130 58 139 46 228 40 765 -51
500 -85 540 -88 657 -45 80 30 137 70 288 203 72 64 132 115 135 116 3 0 70
-129 148 -286z m-2303 -1148 c47 -20 69 -57 62 -106 l-5 -40 579 0 580 0 -6
34 c-8 38 14 89 44 106 55 29 78 18 389 -189 314 -209 333 -226 318 -286 -9
-37 -379 -588 -412 -614 -23 -18 -38 -22 -72 -18 l-43 5 -159 -318 c-97 -193
-172 -331 -191 -349 -62 -62 -100 -74 -251 -79 l-138 -5 0 343 0 342 58 71
c73 89 80 103 74 134 -9 47 -37 55 -195 51 -126 -3 -148 -6 -166 -22 -36 -33
-27 -62 56 -164 43 -52 85 -97 95 -100 17 -4 18 -26 18 -329 l0 -325 -162 4
c-182 5 -224 16 -286 78 -21 22 -90 146 -192 349 l-158 316 -45 -3 c-25 -2
-55 1 -66 8 -12 6 -112 147 -223 313 -190 285 -200 303 -195 339 3 21 11 46
19 55 15 19 570 390 601 403 30 12 33 12 72 -4z m2382 -2086 c64 -39 82 -136
36 -198 -11 -14 -244 -181 -519 -370 -785 -542 -788 -544 -880 -575 -154 -50
-180 -49 -721 42 -290 49 -510 81 -553 81 -89 0 -204 -36 -275 -87 -27 -20
-102 -82 -165 -137 -63 -55 -123 -106 -132 -114 -16 -13 -29 8 -158 274 -77
158 -137 291 -133 295 14 12 1016 561 1078 590 110 52 128 53 605 23 465 -28
483 -31 522 -85 42 -57 15 -151 -51 -179 -17 -6 -172 -26 -345 -44 -352 -35
-360 -37 -354 -105 2 -26 10 -39 30 -50 24 -14 56 -12 335 17 169 19 332 40
361 48 93 26 182 134 182 221 l0 31 508 170 c340 114 522 171 552 171 28 1 57
-6 77 -19z"/>
<path d="M3025 3826 c-61 -26 -84 -106 -48 -166 22 -38 56 -55 106 -53 56 3
107 54 107 108 0 51 -26 94 -65 111 -42 17 -61 17 -100 0z"/>
<path d="M3831 3814 c-55 -46 -60 -121 -11 -173 65 -70 192 -32 200 60 5 55
-2 73 -36 105 -46 44 -106 47 -153 8z"/>
</g>
</svg>
