<?xml version="1.0" encoding="iso-8859-1"?>
<!-- Generator: Adobe Illustrator 19.0.0, SVG Export Plug-In . SVG Version: 6.00 Build 0)  -->
<svg version="1.1" id="Layer_1" xmlns="http://www.w3.org/2000/svg" xmlns:xlink="http://www.w3.org/1999/xlink" x="0px" y="0px"
	 viewBox="0 0 512 512" style="enable-background:new 0 0 512 512;" xml:space="preserve">
<circle style="fill:#273B7A;" cx="256" cy="256" r="256"/>
<path style="fill:#121149;" d="M512,256c0-9.323-0.512-18.527-1.484-27.593L367.442,85.333l-27.976,33.185l-105.796,7.758
	l-104.736,56.908l38.024,38.024l79.412,79.412l-21.507,21.406l42.901,42.901l-60.178,7.006l-59.582,71.521l64.919,64.919
	c14.007,2.374,28.394,3.627,43.075,3.627C397.384,512,512,397.384,512,256z"/>
<path style="fill:#FEE187;" d="M204.105,201.385h103.788l20.758,41.515l-36.481,72.964c-3.084,6.17-9.39,10.068-16.289,10.068
	h-39.764c-6.897,0-13.203-3.898-16.289-10.068L183.346,242.9L204.105,201.385z"/>
<g>
	<path style="fill:#FFC61B;" d="M307.895,201.385h-52.022V325.93h20.009c6.897,0,13.203-3.896,16.287-10.066l36.481-72.964
		L307.895,201.385z"/>
	<path style="fill:#FFC61B;" d="M202.645,190.817l-40.657,27.105c-3.496,2.331-4.441,7.056-2.11,10.552l27.105,40.657
		c3.76,5.641,12.464,3.918,13.793-2.729l13.552-67.762C215.657,191.995,208.286,187.058,202.645,190.817z"/>
</g>
<g>
	<path style="fill:#E09112;" d="M309.355,190.817l40.657,27.105c3.496,2.331,4.441,7.056,2.11,10.552l-27.105,40.657
		c-3.76,5.641-12.464,3.918-13.793-2.729l-13.552-67.762C296.343,191.995,303.714,187.058,309.355,190.817z"/>
	<rect x="251.363" y="263.654" style="fill:#E09112;" width="9.276" height="62.267"/>
</g>
<rect x="255.879" y="263.654" style="fill:#FF5419;" width="4.767" height="62.267"/>
<path style="fill:#D35933;" d="M269.219,265.352l-9.525,11.755c-1.903,2.35-5.487,2.35-7.39,0l-9.525-11.755
	c-2.519-3.11-0.307-7.751,3.696-7.751h19.049C269.526,257.602,271.739,262.242,269.219,265.352z"/>
<path style="fill:#B54324;" d="M265.525,257.602h-9.652v21.254c1.414,0.038,2.843-0.536,3.824-1.748l9.525-11.755
	C271.739,262.242,269.526,257.602,265.525,257.602z"/>
<circle style="fill:#59595B;" cx="224.866" cy="239.761" r="8.806"/>
<circle style="fill:#272525;" cx="285.565" cy="239.761" r="8.806"/>
<path style="fill:#FFEDB5;" d="M386.513,345.603c-2.708-3.763-7.63-5.244-11.969-3.615c-0.062,0.024-0.124,0.047-0.186,0.067
	l-73.463,24.457c0.016,0.59,0.003,1.184-0.034,1.783c-0.614,9.382-7.868,16.917-17.191,17.863l-44.273,4.598
	c-2.801,0.293-5.304-1.743-5.596-4.542c-0.293-2.801,1.743-5.37,4.542-5.596l44.273-4.598c4.37-0.476,7.783-3.984,8.071-8.389
	c0.157-2.405-0.633-4.727-2.222-6.537c-1.589-1.812-3.791-2.896-6.196-3.053l-58.782-3.832c-6.603-0.428-13.155,1.029-18.953,4.22
	l-77.524,42.691l20.995,42.334l19.473-16.989c8.271-7.215,19.227-10.323,30.058-8.521l65.093,10.818
	c11.928,1.586,23.886-1.389,33.68-8.376l88.626-61.037C388.898,355.887,389.599,349.893,386.513,345.603z"/>
<g>
	<path style="fill:#FEE187;" d="M282.615,376.022c4.37-0.476,7.783-3.984,8.071-8.389c0.157-2.405-0.633-4.727-2.222-6.537
		c-1.589-1.812-3.791-2.896-6.196-3.053l-24.545-1.6v22.164L282.615,376.022z"/>
	<path style="fill:#FEE187;" d="M386.513,345.603c-2.708-3.763-7.63-5.244-11.969-3.613c-0.062,0.024-0.124,0.047-0.188,0.067
		l-73.463,24.457c0.016,0.59,0.003,1.184-0.034,1.783c-0.614,9.382-7.868,16.917-17.191,17.863l-25.945,2.694v39.091l4.906,0.815
		c11.928,1.586,23.886-1.389,33.68-8.376l88.626-61.037C388.898,355.887,389.599,349.893,386.513,345.603z"/>
</g>
<path style="fill:#FFEDB5;" d="M128.934,183.184c2.708,3.763,7.63,5.244,11.969,3.615c0.062-0.024,0.124-0.047,0.188-0.067
	l73.463-24.457c-0.016-0.59-0.003-1.184,0.034-1.783c0.614-9.382,7.868-16.917,17.191-17.863l44.273-4.598
	c2.801-0.293,5.304,1.743,5.596,4.542c0.293,2.801-1.741,5.37-4.542,5.596l-44.273,4.598c-4.37,0.476-7.783,3.984-8.071,8.389
	c-0.157,2.405,0.633,4.727,2.222,6.537c1.589,1.812,3.791,2.896,6.196,3.053l58.782,3.832c6.603,0.428,13.155-1.029,18.953-4.22
	l77.524-42.691l-20.995-42.334l-19.473,16.989c-8.271,7.215-19.227,10.323-30.058,8.523l-65.093-10.818
	c-11.928-1.586-23.886,1.389-33.68,8.376l-88.626,61.037C126.55,172.901,125.847,178.897,128.934,183.184z"/>
<path style="fill:#FEE187;" d="M367.442,85.333l-19.473,16.989c-8.271,7.215-19.227,10.323-30.058,8.521l-60.187-10.002v39.091
	l18.327-1.903c2.801-0.291,5.304,1.743,5.596,4.542c0.291,2.801-1.741,5.37-4.542,5.596l-19.38,2.014v22.166l34.235,2.232
	c6.603,0.428,13.155-1.029,18.953-4.22l77.524-42.691L367.442,85.333z"/>
<g>
</g>
<g>
</g>
<g>
</g>
<g>
</g>
<g>
</g>
<g>
</g>
<g>
</g>
<g>
</g>
<g>
</g>
<g>
</g>
<g>
</g>
<g>
</g>
<g>
</g>
<g>
</g>
<g>
</g>
</svg>
